HIERARCHY
ROOT Hips
{
     OFFSET 1.88212 96.90440 -13.34250
     CHANNELS 6 Xposition Yposition Zposition Zrotation Xrotation Yrotation
     JOINT Spine
     {
          OFFSET 0.00000 11.89050 0.00000
          CHANNELS 3 Zrotation Xrotation Yrotation
          JOINT Spine1
          {
               OFFSET -0.00000 25.65740 0.12766
               CHANNELS 3 Zrotation Xrotation Yrotation
               JOINT HEad
               {
                    OFFSET 0.00000 8.73416 0.01134
                    CHANNELS 3 Zrotation Xrotation Yrotation
                    End Site
                    {
                         OFFSET -0.29000 12.77420 2.51395
                    }
               }
               JOINT LeftShoulder1
               {
                    OFFSET 8.99000 -0.36225 -0.22000
                    CHANNELS 3 Zrotation Xrotation Yrotation
                    JOINT LeftArm
                    {
                         OFFSET 10.28270 -0.00338 0.32212
                         CHANNELS 3 Zrotation Xrotation Yrotation
                         JOINT LeftForeArm
                         {
                              OFFSET 32.76690 0.09914 -1.42434
                              CHANNELS 3 Zrotation Xrotation Yrotation
                              JOINT LeftHand
                              {
                                   OFFSET 27.56430 0.08536 1.02216
                                   CHANNELS 3 Zrotation Xrotation Yrotation
                                   End Site
                                   {
                                        OFFSET 16.74430 -0.60000 1.50291
                                   }
                              }
                         }
                    }
               }
               JOINT RightShoulder
               {
                    OFFSET -8.99000 -0.36225 -0.22000
                    CHANNELS 3 Zrotation Xrotation Yrotation
                    JOINT RightArm
                    {
                         OFFSET -10.28270 -0.00338 0.32212
                         CHANNELS 3 Zrotation Xrotation Yrotation
                         JOINT RightForeArm
                         {
                              OFFSET -32.89710 0.09914 -1.42434
                              CHANNELS 3 Zrotation Xrotation Yrotation
                              JOINT RightHand
                              {
                                   OFFSET -27.49210 0.08536 1.02216
                                   CHANNELS 3 Zrotation Xrotation Yrotation
                                   End Site
                                   {
                                        OFFSET -16.63120 -0.60000 1.50291
                                   }
                              }
                         }
                    }
               }
          }
     }
     JOINT LeftUpLeg
     {
          OFFSET 8.94580 -8.66707 0.10165
          CHANNELS 3 Zrotation Xrotation Yrotation
          JOINT LeftLeg
          {
               OFFSET 0.00000 -44.42270 1.37270
               CHANNELS 3 Zrotation Xrotation Yrotation
               JOINT LeftFoot
               {
                    OFFSET -0.25355 -42.09240 -1.46059
                    CHANNELS 3 Zrotation Xrotation Yrotation
                    JOINT LeftToes
                    {
                         OFFSET -0.04000 -4.41509 8.49910
                         CHANNELS 3 Zrotation Xrotation Yrotation
                         End Site
                         {
                              OFFSET 0.08000 -0.04745 9.77979
                         }
                    }
               }
          }
     }
     JOINT RightUpLeg
     {
          OFFSET -8.94580 -8.66707 0.10165
          CHANNELS 3 Zrotation Xrotation Yrotation
          JOINT RightLeg
          {
               OFFSET 0.00000 -44.42270 1.37270
               CHANNELS 3 Zrotation Xrotation Yrotation
               JOINT RightFoot
               {
                    OFFSET 0.25355 -42.09240 -1.46059
                    CHANNELS 3 Zrotation Xrotation Yrotation
                    JOINT RightToes
                    {
                         OFFSET 0.04000 -4.41509 8.49910
                         CHANNELS 3 Zrotation Xrotation Yrotation
                         End Site
                         {
                              OFFSET -0.08000 -0.13745 9.77979
                         }
                    }
               }
          }
     }
}
MOTION
Frames: 12
Frame Time: 0.01667
31.00622 92.97552 -38.07923 5.21283 17.72186 170.07289 -6.72753 29.45283 -31.34262 0.02507 0.00740 0.07128 4.63683 10.38879 12.62423 4.85891 7.58428 54.41048 -105.67805 -13.06181 -74.41592 -58.88952 55.44180 -45.88001 26.91192 15.47633 -33.43850 16.46837 30.04774 68.64986 45.63316 -66.93127 1.81227 62.65987 11.06984 59.08405 48.03554 8.86791 22.59616 4.77619 -11.02668 -48.42515 -19.48263 8.47183 71.79424 2.50085 0.00034 -0.00369 -2.60627 -8.34745 -73.49657 -32.16861 20.86258 -17.00471 26.35252 48.64256 14.91572 -28.38831 -0.04044 -0.00977 23.85913 -39.91473 33.09593 
31.02547 92.66051 -38.08757 3.33855 19.28955 177.55002 -3.08906 31.07607 -33.14303 0.01898 0.00628 0.05835 2.32956 7.83495 12.59218 3.99244 6.23078 48.71936 -109.69373 -19.61508 -75.88240 -57.34896 66.89393 -45.23679 46.22507 21.33645 -48.02125 17.36897 26.64806 62.96651 62.44067 -60.21173 23.02283 65.83584 11.64494 61.34365 46.60454 10.24943 24.25746 1.42234 -10.19907 -50.73317 -18.55932 9.07852 68.30853 2.80440 0.00024 -0.00303 -2.79295 -6.96483 -74.22322 -31.70820 23.88788 -18.27616 21.95669 49.61845 23.16726 -23.96130 -0.23418 -0.03363 19.00456 -40.95691 25.26773 
31.01898 92.30237 -38.12881 1.50444 20.44954 184.02519 0.53015 31.75404 -33.28098 0.02415 -0.00113 0.04120 -0.87424 5.59590 12.55659 5.39448 7.50399 51.63253 -115.03014 -16.34033 -72.56630 -48.83171 78.30786 -53.11312 35.43038 5.06704 -36.50726 11.45044 18.38392 66.77454 80.96317 -60.78890 39.25197 68.90011 13.24254 64.42567 45.13613 11.36190 24.70635 -1.36163 -9.25110 -51.08505 -17.62381 9.95214 64.05956 3.00381 0.00094 -0.00181 -2.88189 -5.66529 -75.01855 -30.97774 26.07755 -18.04361 19.78346 51.16200 25.90748 -20.11200 -0.10749 0.03937 12.70575 -44.48159 15.95085 
31.01637 91.89594 -38.19302 -0.22520 21.26802 189.54955 3.92878 31.72310 -31.79780 0.00591 -0.00875 0.03617 -4.86092 4.02741 12.52061 3.37900 5.42947 42.81028 -115.73183 -22.66685 -73.67808 -2.47656 85.13663 -101.12166 40.96504 2.50034 -34.55750 11.46385 15.67376 58.55157 87.57013 -51.41402 50.99649 71.24849 15.69844 67.52321 44.03679 12.31906 24.36746 -3.61912 -8.31173 -49.67006 -16.63964 11.08942 59.06944 3.05250 0.00211 -0.00049 -2.92654 -4.41431 -75.83981 -30.12052 27.60924 -16.42080 21.16351 51.24850 23.41804 -17.11616 -0.09486 -0.01149 9.68745 -45.71838 12.51453 
31.04028 91.44996 -38.27295 -1.79820 21.80604 194.17624 6.92826 31.21358 -28.74825 -0.00530 -0.01007 0.02992 -8.70810 3.52228 11.02770 0.49223 3.77587 33.27309 -114.67140 -27.70450 -74.77943 47.29882 84.84863 -153.32271 35.38433 -5.45509 -30.04387 10.74799 12.86837 49.97902 92.10106 -41.69825 60.80161 72.74823 18.38932 70.07389 43.13306 12.76489 23.20864 -5.39875 -7.47810 -46.67443 -15.56142 12.46771 53.35896 2.94309 0.00327 0.00043 -2.94030 -3.19174 -76.65311 -29.24080 28.66981 -13.50006 24.92220 50.30957 17.34955 -15.01349 -0.03286 -0.01360 7.38577 -46.50204 9.78337 
31.09352 90.98083 -38.37027 -3.17140 22.12353 197.95258 9.45183 30.43523 -24.22178 -0.00903 -0.00661 0.02662 -12.16327 4.14618 8.25757 -3.16181 2.90645 23.13801 -110.45130 -30.58809 -74.71988 45.22858 85.21378 -152.29349 38.83427 -2.56680 -30.21075 9.85207 10.63842 40.93751 94.61149 -31.65212 69.77744 73.62487 20.45661 71.77382 42.78025 12.67997 21.72368 -6.74791 -6.81225 -42.26592 -14.33721 14.04121 46.95115 2.70148 0.00401 0.00072 -2.90172 -2.01442 -77.42240 -28.40634 29.42556 -9.35758 29.97642 48.34058 9.15234 -13.47719 -0.00295 -0.01141 6.52915 -46.79483 9.25623 
31.15873 90.50187 -38.49434 -4.31118 22.28306 200.91896 11.49457 29.56602 -18.35484 -0.00882 0.00271 0.02615 -14.95256 5.82701 4.36078 -7.12211 3.25108 12.59414 -103.40104 -30.91019 -72.91032 8.13707 85.52023 -113.78382 36.56593 -3.82286 -31.96487 9.38725 9.20391 31.36403 94.83456 -21.59525 78.20318 74.47314 21.38076 73.03934 24.97523 17.42544 10.87530 -7.70748 -6.33340 -36.58725 -12.91096 15.74110 39.87284 2.37354 0.00416 0.00040 -2.76071 -0.96164 -78.12122 -27.68757 30.03015 -4.04073 35.44438 45.24199 -0.01502 -12.34864 0.01054 -0.00814 6.16126 -46.94596 9.34368 
31.20028 90.02226 -38.65670 -5.19689 22.34872 203.11287 13.07161 28.80739 -11.40191 -0.00674 0.02522 0.02608 -16.31928 8.74715 -1.92420 -10.65263 4.89420 1.78620 -95.09367 -29.16474 -70.27386 -26.04679 82.02326 -76.03341 39.68488 -0.50055 -36.03154 9.73438 8.21515 21.15291 92.94756 -11.70492 86.10257 70.78938 17.82969 74.09302 24.62350 17.78740 9.28031 -8.39222 -5.97573 -30.92752 -11.46554 17.25406 33.33941 1.99326 0.00394 -0.00016 -2.46914 -0.13027 -78.74067 -27.20392 30.65395 2.44758 40.69434 40.87656 -9.28082 -11.44106 0.01638 -0.00561 6.31004 -46.90792 10.25576 
31.18019 89.55753 -38.86631 -5.81031 22.36600 204.56424 14.02641 27.92087 -5.06463 -0.01428 0.00500 -0.07745 -16.26388 12.13274 -8.58850 -12.90858 7.54970 -7.49577 -89.60758 -27.91630 -65.68651 -29.78824 79.48906 -68.42844 38.21293 -0.88517 -40.78435 10.51826 7.75879 12.24375 90.78551 -5.74225 90.44321 64.19979 11.50295 74.66605 20.60882 19.25334 6.95692 -8.85058 -5.75874 -25.37701 -10.02904 18.61316 27.41164 1.57963 0.00340 -0.00076 -1.99379 0.38388 -79.28796 -26.91647 31.07071 8.83663 45.36295 35.99746 -20.79841 -8.91605 0.19097 -0.04179 7.80220 -46.91821 16.23632 
31.06625 89.14266 -39.11231 -5.47675 22.04789 203.26675 13.93294 26.95106 2.47564 -0.01577 0.00367 -0.08477 -14.95235 15.25612 -15.59520 -14.12270 10.45708 -15.22503 -84.52871 -25.69135 -63.81014 -34.55566 73.87240 -59.12775 38.99915 0.22257 -45.19621 11.52130 7.38037 4.19965 90.77010 -4.54181 89.56098 59.35310 8.08539 74.38559 12.81271 24.92604 3.21904 -8.49799 -6.45774 -18.32646 -8.61830 19.84040 22.13569 1.12911 0.00264 -0.00146 -1.32406 0.48620 -79.76939 -27.27925 29.99099 16.66662 48.58502 29.44959 -30.75885 -10.59544 -0.03314 0.04459 12.75375 -44.68894 22.16085 
30.84903 88.80788 -39.36327 -4.31401 21.48618 199.69261 13.14806 26.56330 9.46434 -0.01214 0.04843 -0.17651 -13.13273 16.78769 -21.56555 -4.63456 10.22215 -22.81544 -92.11060 -25.40466 -61.50912 -32.25615 71.62497 -57.79305 27.71723 -15.94878 -51.75848 12.43674 6.65221 -1.49176 92.04592 -5.72990 85.82442 55.34112 6.68806 73.54132 26.28309 15.63558 11.25307 -7.38628 -7.66118 -11.28640 -7.56822 20.68451 18.68328 0.60969 0.00210 -0.00228 -0.47505 0.15057 -80.18446 -28.04326 27.60542 25.47334 51.63592 23.48809 -40.83700 -7.27431 0.28196 -0.00060 13.06188 -43.41487 29.65345 
30.52400 88.58557 -39.60719 -2.48129 20.64606 194.26131 11.78658 26.46396 15.91349 -0.01512 0.03842 -0.15235 -11.08630 17.10556 -26.71080 -6.35638 11.51175 -26.20563 -88.78404 -26.12655 -57.56354 -28.82684 69.73460 -58.50542 34.50298 -3.68857 -53.62143 19.88545 2.74892 -14.47460 86.61852 0.37241 79.16363 51.56839 6.44253 72.11627 12.29823 24.57784 5.28556 -5.50186 -9.21004 -4.34057 -6.90629 21.31455 16.86912 -0.01953 0.00177 -0.00336 0.51913 -0.58883 -80.53386 -29.10616 24.22587 33.83068 53.71356 19.03691 -46.99914 -10.65058 -0.07443 0.04124 18.13297 -41.85310 34.04348 
